<svg width="22" height="21" viewBox="0 0 22 21" fill="none" xmlns="http://www.w3.org/2000/svg">
<path d="M3 12.0004L4.57465 18.299C4.61893 18.4761 4.64107 18.5647 4.66727 18.642C4.92317 19.3975 5.60352 19.9287 6.39852 19.9937C6.4799 20.0004 6.5712 20.0004 6.75379 20.0004C6.98244 20.0004 7.09677 20.0004 7.19308 19.9911C8.145 19.8987 8.89834 19.1454 8.99066 18.1935C9 18.0972 9 17.9828 9 17.7542V3.5004M17.5 11.5004C19.433 11.5004 21 9.9334 21 8.0004C21 6.0674 19.433 4.5004 17.5 4.5004M9.25 3.5004H5.5C3.01472 3.5004 0.999998 5.51512 1 8.0004C1 10.4857 3.01472 12.5004 5.5 12.5004H9.25C11.0164 12.5004 13.1772 13.4473 14.8443 14.356C15.8168 14.8862 16.3031 15.1513 16.6216 15.1123C16.9169 15.0761 17.1402 14.9435 17.3133 14.7015C17.5 14.4405 17.5 13.9184 17.5 12.8741V3.12668C17.5 2.0824 17.5 1.56025 17.3133 1.29929C17.1402 1.0573 16.9169 0.9247 16.6216 0.888529C16.3031 0.849522 15.8168 1.1146 14.8443 1.64475C13.1772 2.55351 11.0164 3.5004 9.25 3.5004Z" stroke="#A4A4A4" stroke-width="1.5" stroke-linecap="round" stroke-linejoin="round"/>
</svg>
